<svg width="140" height="45" viewBox="0 0 140 45" fill="none" xmlns="http://www.w3.org/2000/svg">
<path d="M16.5752 11.1797C24.3751 11.1797 31.9805 13.9101 31.9805 24.375V43.3555H20.2803V40.3652C18.5253 42.5752 14.69 44.1348 10.79 44.1348C6.11004 44.1348 0 40.9498 0 33.7998C0.000103589 26 6.11008 23.79 10.79 23.79C14.885 23.79 18.5903 25.0904 20.2803 27.2354V23.9854C20.2803 21.7754 18.2647 20.085 14.4297 20.085C11.5048 20.085 8.18964 21.2547 5.71973 23.1396L1.75488 15.9248C5.97988 12.5448 11.8302 11.1797 16.5752 11.1797ZM46.9033 15.2754C49.3732 12.2855 52.5583 11.1798 55.7432 11.1797C63.4782 11.1797 69.5889 17.225 69.5889 27.625C69.5889 38.415 63.3482 44.1348 55.7432 44.1348C52.5583 44.1347 49.5682 43.0299 46.9033 40.04V43.3555H35.2031V0H46.9033V15.2754ZM82.374 29.3799C82.374 32.5647 84.0641 33.7997 86.9238 33.7998C89.5238 33.7998 90.8893 32.4351 91.8643 31.3301V11.96H103.564V43.3555H91.8643V39.8447C90.0443 41.8597 86.5992 44.1348 81.0742 44.1348C73.7943 44.1347 70.6738 39.7797 70.6738 34.3848V11.96H82.374V29.3799ZM129.333 11.1797C136.613 11.1797 139.798 15.5998 139.798 21.0596V43.3555H128.099V26C128.099 22.75 126.343 21.5146 123.548 21.5146C120.883 21.5148 119.518 22.8804 118.543 23.9854V43.3555H106.843V11.96H118.543V15.5352C120.363 13.4552 123.808 11.1798 129.333 11.1797ZM15.665 31.3945C13.715 31.3945 11.5703 32.0451 11.5703 33.9951C11.5704 35.945 13.7151 36.5303 15.665 36.5303C17.485 36.5303 19.5003 35.9448 20.2803 34.8398V33.085C19.5003 31.98 17.485 31.3945 15.665 31.3945ZM51.999 20C51.7957 20 51.5967 20.0613 51.4287 20.1758C51.2608 20.2902 51.1309 20.4525 51.0566 20.6416L50.5508 21.8613C49.7017 23.9298 48.0911 25.5943 46.0508 26.5117L44.6152 27.1514C44.4317 27.2362 44.2759 27.3717 44.167 27.542C44.0581 27.7123 44 27.9102 44 28.1123C44 28.3144 44.0581 28.5123 44.167 28.6826C44.2759 28.853 44.4316 28.9893 44.6152 29.0742L46.1348 29.749C48.1251 30.6411 49.7091 32.2465 50.5732 34.248L51.0645 35.3799C51.4245 36.2069 52.5704 36.2067 52.9326 35.3799L53.4248 34.248C54.2899 32.2469 55.8745 30.6422 57.8652 29.751L59.3828 29.0742C59.567 28.9896 59.7227 28.8532 59.832 28.6826C59.9414 28.5121 60 28.3139 60 28.1113C60 27.9088 59.9414 27.7106 59.832 27.54C59.7227 27.3696 59.5669 27.234 59.3828 27.1494L57.9492 26.5117C55.9086 25.5952 54.2972 23.9314 53.4473 21.8633L52.9414 20.6416C52.8671 20.4526 52.7372 20.2902 52.5693 20.1758C52.4013 20.0613 52.2023 20 51.999 20Z" fill="black"/>
</svg>
